<mxfile host="app.diagrams.net" modified="2023-07-02T02:15:50.172Z" agent="Mozilla/5.0 (Macintosh; Intel Mac OS X 10.15; rv:109.0) Gecko/20100101 Firefox/115.0" version="21.5.2" etag="zFJAMQmt36NX8TWAGCrh" type="github">
  <diagram name="Page-1" id="PP2kV4BU8NnqiXGmpuRv">
    <mxGraphModel>
      <root>
        <mxCell id="0" />
        <mxCell id="1" parent="0" />
      </root>
    </mxGraphModel>
  </diagram>
</mxfile>
